# xmcd
#
# Track frame offsets: 
#        150
#        16215
#        34666
#        60328
#        78219
#        109025
#        125764
#        152574
#        171711
#        194531
#        211020
#        229573
#
# Disc length: 3166 seconds
#
# Revision: 0
# Processed by: cddbd v1.5.2PL0 Copyright (c) Steve Scherf et al.
# Submitted via: ExactAudioCopyFreeDBPlugin 1.0
#
DISCID=930c5c0c
DTITLE=Jimi Hendrix - People, Hell And Angels
DYEAR=2013
DGENRE=Blues
TTITLE0=Earth Blues
TTITLE1=Somewhere
TTITLE2=Hear My Train A Comin'
TTITLE3=Bleeding Heart
TTITLE4=Let Me Move You
TTITLE5=Izabella
TTITLE6=Easy Blues
TTITLE7=Crash Landing
TTITLE8=Inside Out
TTITLE9=Hey Gypsy Boy
TTITLE10=Mojo Man
TTITLE11=Villanova Junction Blues
EXTD=
EXTT0=
EXTT1=
EXTT2=
EXTT3=
EXTT4=
EXTT5=
EXTT6=
EXTT7=
EXTT8=
EXTT9=
EXTT10=
EXTT11=
PLAYORDER=
